G04 #@! TF.GenerationSoftware,KiCad,Pcbnew,(5.1.10)-1*
G04 #@! TF.CreationDate,2021-05-27T14:09:39+02:00*
G04 #@! TF.ProjectId,HV_UV_detect,48565f55-565f-4646-9574-6563742e6b69,0v2*
G04 #@! TF.SameCoordinates,Original*
G04 #@! TF.FileFunction,Copper,L1,Top*
G04 #@! TF.FilePolarity,Positive*
%FSLAX46Y46*%
G04 Gerber Fmt 4.6, Leading zero omitted, Abs format (unit mm)*
G04 Created by KiCad (PCBNEW (5.1.10)-1) date 2021-05-27 14:09:39*
%MOMM*%
%LPD*%
G01*
G04 APERTURE LIST*
G04 #@! TA.AperFunction,SMDPad,CuDef*
%ADD10R,0.650000X1.700000*%
G04 #@! TD*
G04 #@! TA.AperFunction,SMDPad,CuDef*
%ADD11R,4.750000X3.000000*%
G04 #@! TD*
G04 #@! TA.AperFunction,ComponentPad*
%ADD12O,1.905000X2.000000*%
G04 #@! TD*
G04 #@! TA.AperFunction,ComponentPad*
%ADD13R,1.905000X2.000000*%
G04 #@! TD*
G04 #@! TA.AperFunction,ComponentPad*
%ADD14C,2.999740*%
G04 #@! TD*
G04 #@! TA.AperFunction,ComponentPad*
%ADD15R,2.999740X2.999740*%
G04 #@! TD*
G04 #@! TA.AperFunction,ComponentPad*
%ADD16O,3.600000X2.080000*%
G04 #@! TD*
G04 #@! TA.AperFunction,ViaPad*
%ADD17C,0.800000*%
G04 #@! TD*
G04 #@! TA.AperFunction,Conductor*
%ADD18C,0.300000*%
G04 #@! TD*
G04 #@! TA.AperFunction,Conductor*
%ADD19C,0.500000*%
G04 #@! TD*
G04 #@! TA.AperFunction,Conductor*
%ADD20C,2.000000*%
G04 #@! TD*
G04 APERTURE END LIST*
D10*
X155095000Y-91850000D03*
X156365000Y-91850000D03*
X157635000Y-91850000D03*
X158905000Y-91850000D03*
X158905000Y-99150000D03*
X157635000Y-99150000D03*
X156365000Y-99150000D03*
X155095000Y-99150000D03*
D11*
X150200000Y-98200000D03*
X150200000Y-89700000D03*
D12*
X167680000Y-85600000D03*
X165140000Y-85600000D03*
D13*
X162600000Y-85600000D03*
D14*
X156910000Y-84700000D03*
D15*
X153100000Y-84700000D03*
D14*
X149010000Y-84700000D03*
D15*
X145200000Y-84700000D03*
G04 #@! TA.AperFunction,SMDPad,CuDef*
G36*
G01*
X160475000Y-98525000D02*
X160475000Y-97275000D01*
G75*
G02*
X160725000Y-97025000I250000J0D01*
G01*
X161475000Y-97025000D01*
G75*
G02*
X161725000Y-97275000I0J-250000D01*
G01*
X161725000Y-98525000D01*
G75*
G02*
X161475000Y-98775000I-250000J0D01*
G01*
X160725000Y-98775000D01*
G75*
G02*
X160475000Y-98525000I0J250000D01*
G01*
G37*
G04 #@! TD.AperFunction*
G04 #@! TA.AperFunction,SMDPad,CuDef*
G36*
G01*
X163275000Y-98525000D02*
X163275000Y-97275000D01*
G75*
G02*
X163525000Y-97025000I250000J0D01*
G01*
X164275000Y-97025000D01*
G75*
G02*
X164525000Y-97275000I0J-250000D01*
G01*
X164525000Y-98525000D01*
G75*
G02*
X164275000Y-98775000I-250000J0D01*
G01*
X163525000Y-98775000D01*
G75*
G02*
X163275000Y-98525000I0J250000D01*
G01*
G37*
G04 #@! TD.AperFunction*
G04 #@! TA.AperFunction,ComponentPad*
G36*
G01*
X143749999Y-90460000D02*
X146850001Y-90460000D01*
G75*
G02*
X147100000Y-90709999I0J-249999D01*
G01*
X147100000Y-92290001D01*
G75*
G02*
X146850001Y-92540000I-249999J0D01*
G01*
X143749999Y-92540000D01*
G75*
G02*
X143500000Y-92290001I0J249999D01*
G01*
X143500000Y-90709999D01*
G75*
G02*
X143749999Y-90460000I249999J0D01*
G01*
G37*
G04 #@! TD.AperFunction*
D16*
X145300000Y-96580000D03*
X168000000Y-91520000D03*
G04 #@! TA.AperFunction,ComponentPad*
G36*
G01*
X169550001Y-97640000D02*
X166449999Y-97640000D01*
G75*
G02*
X166200000Y-97390001I0J249999D01*
G01*
X166200000Y-95809999D01*
G75*
G02*
X166449999Y-95560000I249999J0D01*
G01*
X169550001Y-95560000D01*
G75*
G02*
X169800000Y-95809999I0J-249999D01*
G01*
X169800000Y-97390001D01*
G75*
G02*
X169550001Y-97640000I-249999J0D01*
G01*
G37*
G04 #@! TD.AperFunction*
G04 #@! TA.AperFunction,SMDPad,CuDef*
G36*
G01*
X153375000Y-89375000D02*
X153375000Y-88125000D01*
G75*
G02*
X153625000Y-87875000I250000J0D01*
G01*
X154375000Y-87875000D01*
G75*
G02*
X154625000Y-88125000I0J-250000D01*
G01*
X154625000Y-89375000D01*
G75*
G02*
X154375000Y-89625000I-250000J0D01*
G01*
X153625000Y-89625000D01*
G75*
G02*
X153375000Y-89375000I0J250000D01*
G01*
G37*
G04 #@! TD.AperFunction*
G04 #@! TA.AperFunction,SMDPad,CuDef*
G36*
G01*
X156175000Y-89375000D02*
X156175000Y-88125000D01*
G75*
G02*
X156425000Y-87875000I250000J0D01*
G01*
X157175000Y-87875000D01*
G75*
G02*
X157425000Y-88125000I0J-250000D01*
G01*
X157425000Y-89375000D01*
G75*
G02*
X157175000Y-89625000I-250000J0D01*
G01*
X156425000Y-89625000D01*
G75*
G02*
X156175000Y-89375000I0J250000D01*
G01*
G37*
G04 #@! TD.AperFunction*
G04 #@! TA.AperFunction,SMDPad,CuDef*
G36*
G01*
X159525000Y-90525000D02*
X158275000Y-90525000D01*
G75*
G02*
X158025000Y-90275000I0J250000D01*
G01*
X158025000Y-89525000D01*
G75*
G02*
X158275000Y-89275000I250000J0D01*
G01*
X159525000Y-89275000D01*
G75*
G02*
X159775000Y-89525000I0J-250000D01*
G01*
X159775000Y-90275000D01*
G75*
G02*
X159525000Y-90525000I-250000J0D01*
G01*
G37*
G04 #@! TD.AperFunction*
G04 #@! TA.AperFunction,SMDPad,CuDef*
G36*
G01*
X159525000Y-87725000D02*
X158275000Y-87725000D01*
G75*
G02*
X158025000Y-87475000I0J250000D01*
G01*
X158025000Y-86725000D01*
G75*
G02*
X158275000Y-86475000I250000J0D01*
G01*
X159525000Y-86475000D01*
G75*
G02*
X159775000Y-86725000I0J-250000D01*
G01*
X159775000Y-87475000D01*
G75*
G02*
X159525000Y-87725000I-250000J0D01*
G01*
G37*
G04 #@! TD.AperFunction*
G04 #@! TA.AperFunction,SMDPad,CuDef*
G36*
G01*
X161725000Y-91875000D02*
X161725000Y-93125000D01*
G75*
G02*
X161475000Y-93375000I-250000J0D01*
G01*
X160725000Y-93375000D01*
G75*
G02*
X160475000Y-93125000I0J250000D01*
G01*
X160475000Y-91875000D01*
G75*
G02*
X160725000Y-91625000I250000J0D01*
G01*
X161475000Y-91625000D01*
G75*
G02*
X161725000Y-91875000I0J-250000D01*
G01*
G37*
G04 #@! TD.AperFunction*
G04 #@! TA.AperFunction,SMDPad,CuDef*
G36*
G01*
X164525000Y-91875000D02*
X164525000Y-93125000D01*
G75*
G02*
X164275000Y-93375000I-250000J0D01*
G01*
X163525000Y-93375000D01*
G75*
G02*
X163275000Y-93125000I0J250000D01*
G01*
X163275000Y-91875000D01*
G75*
G02*
X163525000Y-91625000I250000J0D01*
G01*
X164275000Y-91625000D01*
G75*
G02*
X164525000Y-91875000I0J-250000D01*
G01*
G37*
G04 #@! TD.AperFunction*
G04 #@! TA.AperFunction,SMDPad,CuDef*
G36*
G01*
X163275000Y-95825000D02*
X163275000Y-94575000D01*
G75*
G02*
X163525000Y-94325000I250000J0D01*
G01*
X164275000Y-94325000D01*
G75*
G02*
X164525000Y-94575000I0J-250000D01*
G01*
X164525000Y-95825000D01*
G75*
G02*
X164275000Y-96075000I-250000J0D01*
G01*
X163525000Y-96075000D01*
G75*
G02*
X163275000Y-95825000I0J250000D01*
G01*
G37*
G04 #@! TD.AperFunction*
G04 #@! TA.AperFunction,SMDPad,CuDef*
G36*
G01*
X160475000Y-95825000D02*
X160475000Y-94575000D01*
G75*
G02*
X160725000Y-94325000I250000J0D01*
G01*
X161475000Y-94325000D01*
G75*
G02*
X161725000Y-94575000I0J-250000D01*
G01*
X161725000Y-95825000D01*
G75*
G02*
X161475000Y-96075000I-250000J0D01*
G01*
X160725000Y-96075000D01*
G75*
G02*
X160475000Y-95825000I0J250000D01*
G01*
G37*
G04 #@! TD.AperFunction*
G04 #@! TA.AperFunction,SMDPad,CuDef*
G36*
G01*
X164525000Y-89075000D02*
X164525000Y-90325000D01*
G75*
G02*
X164275000Y-90575000I-250000J0D01*
G01*
X163525000Y-90575000D01*
G75*
G02*
X163275000Y-90325000I0J250000D01*
G01*
X163275000Y-89075000D01*
G75*
G02*
X163525000Y-88825000I250000J0D01*
G01*
X164275000Y-88825000D01*
G75*
G02*
X164525000Y-89075000I0J-250000D01*
G01*
G37*
G04 #@! TD.AperFunction*
G04 #@! TA.AperFunction,SMDPad,CuDef*
G36*
G01*
X161725000Y-89075000D02*
X161725000Y-90325000D01*
G75*
G02*
X161475000Y-90575000I-250000J0D01*
G01*
X160725000Y-90575000D01*
G75*
G02*
X160475000Y-90325000I0J250000D01*
G01*
X160475000Y-89075000D01*
G75*
G02*
X160725000Y-88825000I250000J0D01*
G01*
X161475000Y-88825000D01*
G75*
G02*
X161725000Y-89075000I0J-250000D01*
G01*
G37*
G04 #@! TD.AperFunction*
D17*
X159825000Y-98775000D03*
X160450000Y-88150000D03*
X150100000Y-93200000D03*
X149700000Y-92400000D03*
X150600000Y-92400000D03*
D18*
X158905000Y-98775000D02*
X159825000Y-98775000D01*
X159825000Y-98775000D02*
X160225000Y-98775000D01*
D19*
X161100000Y-88800000D02*
X161100000Y-89700000D01*
X160300000Y-88000000D02*
X160450000Y-88150000D01*
X160450000Y-88150000D02*
X161100000Y-88800000D01*
X160225000Y-98775000D02*
X161100000Y-97900000D01*
X158905000Y-98775000D02*
X160225000Y-98775000D01*
D20*
X145300000Y-84800000D02*
X145200000Y-84700000D01*
X145300000Y-91500000D02*
X145300000Y-84800000D01*
D19*
X159400000Y-87100000D02*
X160450000Y-88150000D01*
X158900000Y-87100000D02*
X159400000Y-87100000D01*
D18*
X163900000Y-97900000D02*
X163900000Y-95200000D01*
D20*
X149010000Y-88210000D02*
X150500000Y-89700000D01*
X149010000Y-84700000D02*
X149010000Y-88210000D01*
X150500000Y-89700000D02*
X150500000Y-89700000D01*
X149700000Y-90500000D02*
X150500000Y-89700000D01*
X150600000Y-89800000D02*
X150500000Y-89700000D01*
D18*
X151700000Y-90900000D02*
X150500000Y-89700000D01*
D20*
X150100000Y-90100000D02*
X150500000Y-89700000D01*
X150100000Y-93200000D02*
X150100000Y-90100000D01*
D18*
X151150000Y-88750000D02*
X150200000Y-89700000D01*
X154000000Y-88750000D02*
X151150000Y-88750000D01*
D20*
X146920000Y-98200000D02*
X145300000Y-96580000D01*
X150500000Y-98200000D02*
X146920000Y-98200000D01*
D19*
X156000000Y-86500000D02*
X155400000Y-87100000D01*
X156000000Y-85750000D02*
X156000000Y-86500000D01*
X156910000Y-84840000D02*
X156000000Y-85750000D01*
X156910000Y-84700000D02*
X156910000Y-84840000D01*
X155400000Y-87100000D02*
X155400000Y-90100000D01*
X155095000Y-90405000D02*
X155095000Y-91850000D01*
X155400000Y-90100000D02*
X155095000Y-90405000D01*
D18*
X163900000Y-89700000D02*
X163900000Y-88900000D01*
X162600000Y-87600000D02*
X162600000Y-85600000D01*
X163900000Y-88900000D02*
X162600000Y-87600000D01*
X163900000Y-92500000D02*
X163900000Y-89700000D01*
X156365000Y-89185000D02*
X156800000Y-88750000D01*
X156365000Y-91850000D02*
X156365000Y-89185000D01*
X157750000Y-88750000D02*
X158900000Y-89900000D01*
X156800000Y-88750000D02*
X157750000Y-88750000D01*
X161100000Y-92500000D02*
X160500000Y-92500000D01*
X160500000Y-92500000D02*
X159800000Y-93200000D01*
X159800000Y-93200000D02*
X159800000Y-95000000D01*
X159800000Y-95000000D02*
X159300000Y-95500000D01*
X159300000Y-95500000D02*
X156900000Y-95500000D01*
X156365000Y-96035000D02*
X156365000Y-98775000D01*
X156900000Y-95500000D02*
X156365000Y-96035000D01*
X161100000Y-95200000D02*
X161100000Y-95300000D01*
X157635000Y-98775000D02*
X157635000Y-96965000D01*
X157635000Y-96965000D02*
X158100000Y-96500000D01*
X159800000Y-96500000D02*
X161100000Y-95200000D01*
X158100000Y-96500000D02*
X159800000Y-96500000D01*
M02*
