G04 #@! TF.GenerationSoftware,KiCad,Pcbnew,(5.1.10)-1*
G04 #@! TF.CreationDate,2021-05-27T14:09:39+02:00*
G04 #@! TF.ProjectId,HV_UV_detect,48565f55-565f-4646-9574-6563742e6b69,0v2*
G04 #@! TF.SameCoordinates,Original*
G04 #@! TF.FileFunction,Soldermask,Top*
G04 #@! TF.FilePolarity,Negative*
%FSLAX46Y46*%
G04 Gerber Fmt 4.6, Leading zero omitted, Abs format (unit mm)*
G04 Created by KiCad (PCBNEW (5.1.10)-1) date 2021-05-27 14:09:39*
%MOMM*%
%LPD*%
G01*
G04 APERTURE LIST*
%ADD10O,2.007000X2.102000*%
%ADD11C,3.101740*%
%ADD12O,3.702000X2.182000*%
%ADD13C,0.100000*%
G04 APERTURE END LIST*
G36*
G01*
X155420001Y-92751000D02*
X154769999Y-92751000D01*
G75*
G02*
X154719000Y-92700001I0J50999D01*
G01*
X154719000Y-90999999D01*
G75*
G02*
X154769999Y-90949000I50999J0D01*
G01*
X155420001Y-90949000D01*
G75*
G02*
X155471000Y-90999999I0J-50999D01*
G01*
X155471000Y-92700001D01*
G75*
G02*
X155420001Y-92751000I-50999J0D01*
G01*
G37*
G36*
G01*
X156690001Y-92751000D02*
X156039999Y-92751000D01*
G75*
G02*
X155989000Y-92700001I0J50999D01*
G01*
X155989000Y-90999999D01*
G75*
G02*
X156039999Y-90949000I50999J0D01*
G01*
X156690001Y-90949000D01*
G75*
G02*
X156741000Y-90999999I0J-50999D01*
G01*
X156741000Y-92700001D01*
G75*
G02*
X156690001Y-92751000I-50999J0D01*
G01*
G37*
G36*
G01*
X157960001Y-92751000D02*
X157309999Y-92751000D01*
G75*
G02*
X157259000Y-92700001I0J50999D01*
G01*
X157259000Y-90999999D01*
G75*
G02*
X157309999Y-90949000I50999J0D01*
G01*
X157960001Y-90949000D01*
G75*
G02*
X158011000Y-90999999I0J-50999D01*
G01*
X158011000Y-92700001D01*
G75*
G02*
X157960001Y-92751000I-50999J0D01*
G01*
G37*
G36*
G01*
X159230001Y-92751000D02*
X158579999Y-92751000D01*
G75*
G02*
X158529000Y-92700001I0J50999D01*
G01*
X158529000Y-90999999D01*
G75*
G02*
X158579999Y-90949000I50999J0D01*
G01*
X159230001Y-90949000D01*
G75*
G02*
X159281000Y-90999999I0J-50999D01*
G01*
X159281000Y-92700001D01*
G75*
G02*
X159230001Y-92751000I-50999J0D01*
G01*
G37*
G36*
G01*
X159230001Y-100051000D02*
X158579999Y-100051000D01*
G75*
G02*
X158529000Y-100000001I0J50999D01*
G01*
X158529000Y-98299999D01*
G75*
G02*
X158579999Y-98249000I50999J0D01*
G01*
X159230001Y-98249000D01*
G75*
G02*
X159281000Y-98299999I0J-50999D01*
G01*
X159281000Y-100000001D01*
G75*
G02*
X159230001Y-100051000I-50999J0D01*
G01*
G37*
G36*
G01*
X157960001Y-100051000D02*
X157309999Y-100051000D01*
G75*
G02*
X157259000Y-100000001I0J50999D01*
G01*
X157259000Y-98299999D01*
G75*
G02*
X157309999Y-98249000I50999J0D01*
G01*
X157960001Y-98249000D01*
G75*
G02*
X158011000Y-98299999I0J-50999D01*
G01*
X158011000Y-100000001D01*
G75*
G02*
X157960001Y-100051000I-50999J0D01*
G01*
G37*
G36*
G01*
X156690001Y-100051000D02*
X156039999Y-100051000D01*
G75*
G02*
X155989000Y-100000001I0J50999D01*
G01*
X155989000Y-98299999D01*
G75*
G02*
X156039999Y-98249000I50999J0D01*
G01*
X156690001Y-98249000D01*
G75*
G02*
X156741000Y-98299999I0J-50999D01*
G01*
X156741000Y-100000001D01*
G75*
G02*
X156690001Y-100051000I-50999J0D01*
G01*
G37*
G36*
G01*
X155420001Y-100051000D02*
X154769999Y-100051000D01*
G75*
G02*
X154719000Y-100000001I0J50999D01*
G01*
X154719000Y-98299999D01*
G75*
G02*
X154769999Y-98249000I50999J0D01*
G01*
X155420001Y-98249000D01*
G75*
G02*
X155471000Y-98299999I0J-50999D01*
G01*
X155471000Y-100000001D01*
G75*
G02*
X155420001Y-100051000I-50999J0D01*
G01*
G37*
G36*
G01*
X147825000Y-96649000D02*
X152575000Y-96649000D01*
G75*
G02*
X152626000Y-96700000I0J-51000D01*
G01*
X152626000Y-99700000D01*
G75*
G02*
X152575000Y-99751000I-51000J0D01*
G01*
X147825000Y-99751000D01*
G75*
G02*
X147774000Y-99700000I0J51000D01*
G01*
X147774000Y-96700000D01*
G75*
G02*
X147825000Y-96649000I51000J0D01*
G01*
G37*
G36*
G01*
X147825000Y-88149000D02*
X152575000Y-88149000D01*
G75*
G02*
X152626000Y-88200000I0J-51000D01*
G01*
X152626000Y-91200000D01*
G75*
G02*
X152575000Y-91251000I-51000J0D01*
G01*
X147825000Y-91251000D01*
G75*
G02*
X147774000Y-91200000I0J51000D01*
G01*
X147774000Y-88200000D01*
G75*
G02*
X147825000Y-88149000I51000J0D01*
G01*
G37*
D10*
X167680000Y-85600000D03*
X165140000Y-85600000D03*
G36*
G01*
X161596500Y-86600000D02*
X161596500Y-84600000D01*
G75*
G02*
X161647500Y-84549000I51000J0D01*
G01*
X163552500Y-84549000D01*
G75*
G02*
X163603500Y-84600000I0J-51000D01*
G01*
X163603500Y-86600000D01*
G75*
G02*
X163552500Y-86651000I-51000J0D01*
G01*
X161647500Y-86651000D01*
G75*
G02*
X161596500Y-86600000I0J51000D01*
G01*
G37*
D11*
X156910000Y-84700000D03*
G36*
G01*
X151549130Y-86199870D02*
X151549130Y-83200130D01*
G75*
G02*
X151600130Y-83149130I51000J0D01*
G01*
X154599870Y-83149130D01*
G75*
G02*
X154650870Y-83200130I0J-51000D01*
G01*
X154650870Y-86199870D01*
G75*
G02*
X154599870Y-86250870I-51000J0D01*
G01*
X151600130Y-86250870D01*
G75*
G02*
X151549130Y-86199870I0J51000D01*
G01*
G37*
X149010000Y-84700000D03*
G36*
G01*
X143649130Y-86199870D02*
X143649130Y-83200130D01*
G75*
G02*
X143700130Y-83149130I51000J0D01*
G01*
X146699870Y-83149130D01*
G75*
G02*
X146750870Y-83200130I0J-51000D01*
G01*
X146750870Y-86199870D01*
G75*
G02*
X146699870Y-86250870I-51000J0D01*
G01*
X143700130Y-86250870D01*
G75*
G02*
X143649130Y-86199870I0J51000D01*
G01*
G37*
G36*
G01*
X160424000Y-98555600D02*
X160424000Y-97244400D01*
G75*
G02*
X160694400Y-96974000I270400J0D01*
G01*
X161505600Y-96974000D01*
G75*
G02*
X161776000Y-97244400I0J-270400D01*
G01*
X161776000Y-98555600D01*
G75*
G02*
X161505600Y-98826000I-270400J0D01*
G01*
X160694400Y-98826000D01*
G75*
G02*
X160424000Y-98555600I0J270400D01*
G01*
G37*
G36*
G01*
X163224000Y-98555600D02*
X163224000Y-97244400D01*
G75*
G02*
X163494400Y-96974000I270400J0D01*
G01*
X164305600Y-96974000D01*
G75*
G02*
X164576000Y-97244400I0J-270400D01*
G01*
X164576000Y-98555600D01*
G75*
G02*
X164305600Y-98826000I-270400J0D01*
G01*
X163494400Y-98826000D01*
G75*
G02*
X163224000Y-98555600I0J270400D01*
G01*
G37*
G36*
G01*
X143711258Y-90409000D02*
X146888742Y-90409000D01*
G75*
G02*
X147151000Y-90671258I0J-262258D01*
G01*
X147151000Y-92328742D01*
G75*
G02*
X146888742Y-92591000I-262258J0D01*
G01*
X143711258Y-92591000D01*
G75*
G02*
X143449000Y-92328742I0J262258D01*
G01*
X143449000Y-90671258D01*
G75*
G02*
X143711258Y-90409000I262258J0D01*
G01*
G37*
D12*
X145300000Y-96580000D03*
X168000000Y-91520000D03*
G36*
G01*
X169588742Y-97691000D02*
X166411258Y-97691000D01*
G75*
G02*
X166149000Y-97428742I0J262258D01*
G01*
X166149000Y-95771258D01*
G75*
G02*
X166411258Y-95509000I262258J0D01*
G01*
X169588742Y-95509000D01*
G75*
G02*
X169851000Y-95771258I0J-262258D01*
G01*
X169851000Y-97428742D01*
G75*
G02*
X169588742Y-97691000I-262258J0D01*
G01*
G37*
G36*
G01*
X153324000Y-89405600D02*
X153324000Y-88094400D01*
G75*
G02*
X153594400Y-87824000I270400J0D01*
G01*
X154405600Y-87824000D01*
G75*
G02*
X154676000Y-88094400I0J-270400D01*
G01*
X154676000Y-89405600D01*
G75*
G02*
X154405600Y-89676000I-270400J0D01*
G01*
X153594400Y-89676000D01*
G75*
G02*
X153324000Y-89405600I0J270400D01*
G01*
G37*
G36*
G01*
X156124000Y-89405600D02*
X156124000Y-88094400D01*
G75*
G02*
X156394400Y-87824000I270400J0D01*
G01*
X157205600Y-87824000D01*
G75*
G02*
X157476000Y-88094400I0J-270400D01*
G01*
X157476000Y-89405600D01*
G75*
G02*
X157205600Y-89676000I-270400J0D01*
G01*
X156394400Y-89676000D01*
G75*
G02*
X156124000Y-89405600I0J270400D01*
G01*
G37*
G36*
G01*
X159555600Y-90576000D02*
X158244400Y-90576000D01*
G75*
G02*
X157974000Y-90305600I0J270400D01*
G01*
X157974000Y-89494400D01*
G75*
G02*
X158244400Y-89224000I270400J0D01*
G01*
X159555600Y-89224000D01*
G75*
G02*
X159826000Y-89494400I0J-270400D01*
G01*
X159826000Y-90305600D01*
G75*
G02*
X159555600Y-90576000I-270400J0D01*
G01*
G37*
G36*
G01*
X159555600Y-87776000D02*
X158244400Y-87776000D01*
G75*
G02*
X157974000Y-87505600I0J270400D01*
G01*
X157974000Y-86694400D01*
G75*
G02*
X158244400Y-86424000I270400J0D01*
G01*
X159555600Y-86424000D01*
G75*
G02*
X159826000Y-86694400I0J-270400D01*
G01*
X159826000Y-87505600D01*
G75*
G02*
X159555600Y-87776000I-270400J0D01*
G01*
G37*
G36*
G01*
X161776000Y-91844400D02*
X161776000Y-93155600D01*
G75*
G02*
X161505600Y-93426000I-270400J0D01*
G01*
X160694400Y-93426000D01*
G75*
G02*
X160424000Y-93155600I0J270400D01*
G01*
X160424000Y-91844400D01*
G75*
G02*
X160694400Y-91574000I270400J0D01*
G01*
X161505600Y-91574000D01*
G75*
G02*
X161776000Y-91844400I0J-270400D01*
G01*
G37*
G36*
G01*
X164576000Y-91844400D02*
X164576000Y-93155600D01*
G75*
G02*
X164305600Y-93426000I-270400J0D01*
G01*
X163494400Y-93426000D01*
G75*
G02*
X163224000Y-93155600I0J270400D01*
G01*
X163224000Y-91844400D01*
G75*
G02*
X163494400Y-91574000I270400J0D01*
G01*
X164305600Y-91574000D01*
G75*
G02*
X164576000Y-91844400I0J-270400D01*
G01*
G37*
G36*
G01*
X163224000Y-95855600D02*
X163224000Y-94544400D01*
G75*
G02*
X163494400Y-94274000I270400J0D01*
G01*
X164305600Y-94274000D01*
G75*
G02*
X164576000Y-94544400I0J-270400D01*
G01*
X164576000Y-95855600D01*
G75*
G02*
X164305600Y-96126000I-270400J0D01*
G01*
X163494400Y-96126000D01*
G75*
G02*
X163224000Y-95855600I0J270400D01*
G01*
G37*
G36*
G01*
X160424000Y-95855600D02*
X160424000Y-94544400D01*
G75*
G02*
X160694400Y-94274000I270400J0D01*
G01*
X161505600Y-94274000D01*
G75*
G02*
X161776000Y-94544400I0J-270400D01*
G01*
X161776000Y-95855600D01*
G75*
G02*
X161505600Y-96126000I-270400J0D01*
G01*
X160694400Y-96126000D01*
G75*
G02*
X160424000Y-95855600I0J270400D01*
G01*
G37*
G36*
G01*
X164576000Y-89044400D02*
X164576000Y-90355600D01*
G75*
G02*
X164305600Y-90626000I-270400J0D01*
G01*
X163494400Y-90626000D01*
G75*
G02*
X163224000Y-90355600I0J270400D01*
G01*
X163224000Y-89044400D01*
G75*
G02*
X163494400Y-88774000I270400J0D01*
G01*
X164305600Y-88774000D01*
G75*
G02*
X164576000Y-89044400I0J-270400D01*
G01*
G37*
G36*
G01*
X161776000Y-89044400D02*
X161776000Y-90355600D01*
G75*
G02*
X161505600Y-90626000I-270400J0D01*
G01*
X160694400Y-90626000D01*
G75*
G02*
X160424000Y-90355600I0J270400D01*
G01*
X160424000Y-89044400D01*
G75*
G02*
X160694400Y-88774000I270400J0D01*
G01*
X161505600Y-88774000D01*
G75*
G02*
X161776000Y-89044400I0J-270400D01*
G01*
G37*
D13*
G36*
X169852165Y-97427116D02*
G01*
X169853000Y-97428742D01*
X169853000Y-97517552D01*
X169852990Y-97517748D01*
X169849182Y-97556413D01*
X169849106Y-97556798D01*
X169839620Y-97588070D01*
X169839470Y-97588432D01*
X169824066Y-97617251D01*
X169823848Y-97617577D01*
X169803116Y-97642839D01*
X169802839Y-97643116D01*
X169777577Y-97663848D01*
X169777251Y-97664066D01*
X169748432Y-97679470D01*
X169748070Y-97679620D01*
X169716798Y-97689106D01*
X169716413Y-97689182D01*
X169677748Y-97692990D01*
X169677552Y-97693000D01*
X169588742Y-97693000D01*
X169587010Y-97692000D01*
X169587010Y-97690000D01*
X169588546Y-97689010D01*
X169639511Y-97683991D01*
X169688335Y-97669180D01*
X169733329Y-97645131D01*
X169772765Y-97612765D01*
X169805131Y-97573329D01*
X169829180Y-97528335D01*
X169843991Y-97479511D01*
X169849010Y-97428546D01*
X169850175Y-97426920D01*
X169852165Y-97427116D01*
G37*
G36*
X166150990Y-97428546D02*
G01*
X166156009Y-97479511D01*
X166170820Y-97528335D01*
X166194869Y-97573329D01*
X166227235Y-97612765D01*
X166266671Y-97645131D01*
X166311665Y-97669180D01*
X166360489Y-97683991D01*
X166411454Y-97689010D01*
X166413080Y-97690175D01*
X166412884Y-97692165D01*
X166411258Y-97693000D01*
X166322448Y-97693000D01*
X166322252Y-97692990D01*
X166283587Y-97689182D01*
X166283202Y-97689106D01*
X166251930Y-97679620D01*
X166251568Y-97679470D01*
X166222749Y-97664066D01*
X166222423Y-97663848D01*
X166197161Y-97643116D01*
X166196884Y-97642839D01*
X166176152Y-97617577D01*
X166175934Y-97617251D01*
X166160530Y-97588432D01*
X166160380Y-97588070D01*
X166150894Y-97556798D01*
X166150818Y-97556413D01*
X166147010Y-97517748D01*
X166147000Y-97517552D01*
X166147000Y-97428742D01*
X166148000Y-97427010D01*
X166150000Y-97427010D01*
X166150990Y-97428546D01*
G37*
G36*
X166412990Y-95508000D02*
G01*
X166412990Y-95510000D01*
X166411454Y-95510990D01*
X166360489Y-95516009D01*
X166311665Y-95530820D01*
X166266671Y-95554869D01*
X166227235Y-95587235D01*
X166194869Y-95626671D01*
X166170820Y-95671665D01*
X166156009Y-95720489D01*
X166150990Y-95771454D01*
X166149825Y-95773080D01*
X166147835Y-95772884D01*
X166147000Y-95771258D01*
X166147000Y-95682448D01*
X166147010Y-95682252D01*
X166150818Y-95643587D01*
X166150894Y-95643202D01*
X166160380Y-95611930D01*
X166160530Y-95611568D01*
X166175934Y-95582749D01*
X166176152Y-95582423D01*
X166196884Y-95557161D01*
X166197161Y-95556884D01*
X166222423Y-95536152D01*
X166222749Y-95535934D01*
X166251568Y-95520530D01*
X166251930Y-95520380D01*
X166283202Y-95510894D01*
X166283587Y-95510818D01*
X166322252Y-95507010D01*
X166322448Y-95507000D01*
X166411258Y-95507000D01*
X166412990Y-95508000D01*
G37*
G36*
X169677748Y-95507010D02*
G01*
X169716413Y-95510818D01*
X169716798Y-95510894D01*
X169748070Y-95520380D01*
X169748432Y-95520530D01*
X169777251Y-95535934D01*
X169777577Y-95536152D01*
X169802839Y-95556884D01*
X169803116Y-95557161D01*
X169823848Y-95582423D01*
X169824066Y-95582749D01*
X169839470Y-95611568D01*
X169839620Y-95611930D01*
X169849106Y-95643202D01*
X169849182Y-95643587D01*
X169852990Y-95682252D01*
X169853000Y-95682448D01*
X169853000Y-95771258D01*
X169852000Y-95772990D01*
X169850000Y-95772990D01*
X169849010Y-95771454D01*
X169843991Y-95720489D01*
X169829180Y-95671665D01*
X169805131Y-95626671D01*
X169772765Y-95587235D01*
X169733329Y-95554869D01*
X169688335Y-95530820D01*
X169639511Y-95516009D01*
X169588546Y-95510990D01*
X169586920Y-95509825D01*
X169587116Y-95507835D01*
X169588742Y-95507000D01*
X169677552Y-95507000D01*
X169677748Y-95507010D01*
G37*
G36*
X143450990Y-92328546D02*
G01*
X143456009Y-92379511D01*
X143470820Y-92428335D01*
X143494869Y-92473329D01*
X143527235Y-92512765D01*
X143566671Y-92545131D01*
X143611665Y-92569180D01*
X143660489Y-92583991D01*
X143711454Y-92589010D01*
X143713080Y-92590175D01*
X143712884Y-92592165D01*
X143711258Y-92593000D01*
X143622448Y-92593000D01*
X143622252Y-92592990D01*
X143583587Y-92589182D01*
X143583202Y-92589106D01*
X143551930Y-92579620D01*
X143551568Y-92579470D01*
X143522749Y-92564066D01*
X143522423Y-92563848D01*
X143497161Y-92543116D01*
X143496884Y-92542839D01*
X143476152Y-92517577D01*
X143475934Y-92517251D01*
X143460530Y-92488432D01*
X143460380Y-92488070D01*
X143450894Y-92456798D01*
X143450818Y-92456413D01*
X143447010Y-92417748D01*
X143447000Y-92417552D01*
X143447000Y-92328742D01*
X143448000Y-92327010D01*
X143450000Y-92327010D01*
X143450990Y-92328546D01*
G37*
G36*
X147152165Y-92327116D02*
G01*
X147153000Y-92328742D01*
X147153000Y-92417552D01*
X147152990Y-92417748D01*
X147149182Y-92456413D01*
X147149106Y-92456798D01*
X147139620Y-92488070D01*
X147139470Y-92488432D01*
X147124066Y-92517251D01*
X147123848Y-92517577D01*
X147103116Y-92542839D01*
X147102839Y-92543116D01*
X147077577Y-92563848D01*
X147077251Y-92564066D01*
X147048432Y-92579470D01*
X147048070Y-92579620D01*
X147016798Y-92589106D01*
X147016413Y-92589182D01*
X146977748Y-92592990D01*
X146977552Y-92593000D01*
X146888742Y-92593000D01*
X146887010Y-92592000D01*
X146887010Y-92590000D01*
X146888546Y-92589010D01*
X146939511Y-92583991D01*
X146988335Y-92569180D01*
X147033329Y-92545131D01*
X147072765Y-92512765D01*
X147105131Y-92473329D01*
X147129180Y-92428335D01*
X147143991Y-92379511D01*
X147149010Y-92328546D01*
X147150175Y-92326920D01*
X147152165Y-92327116D01*
G37*
G36*
X143712990Y-90408000D02*
G01*
X143712990Y-90410000D01*
X143711454Y-90410990D01*
X143660489Y-90416009D01*
X143611665Y-90430820D01*
X143566671Y-90454869D01*
X143527235Y-90487235D01*
X143494869Y-90526671D01*
X143470820Y-90571665D01*
X143456009Y-90620489D01*
X143450990Y-90671454D01*
X143449825Y-90673080D01*
X143447835Y-90672884D01*
X143447000Y-90671258D01*
X143447000Y-90582448D01*
X143447010Y-90582252D01*
X143450818Y-90543587D01*
X143450894Y-90543202D01*
X143460380Y-90511930D01*
X143460530Y-90511568D01*
X143475934Y-90482749D01*
X143476152Y-90482423D01*
X143496884Y-90457161D01*
X143497161Y-90456884D01*
X143522423Y-90436152D01*
X143522749Y-90435934D01*
X143551568Y-90420530D01*
X143551930Y-90420380D01*
X143583202Y-90410894D01*
X143583587Y-90410818D01*
X143622252Y-90407010D01*
X143622448Y-90407000D01*
X143711258Y-90407000D01*
X143712990Y-90408000D01*
G37*
G36*
X146977748Y-90407010D02*
G01*
X147016413Y-90410818D01*
X147016798Y-90410894D01*
X147048070Y-90420380D01*
X147048432Y-90420530D01*
X147077251Y-90435934D01*
X147077577Y-90436152D01*
X147102839Y-90456884D01*
X147103116Y-90457161D01*
X147123848Y-90482423D01*
X147124066Y-90482749D01*
X147139470Y-90511568D01*
X147139620Y-90511930D01*
X147149106Y-90543202D01*
X147149182Y-90543587D01*
X147152990Y-90582252D01*
X147153000Y-90582448D01*
X147153000Y-90671258D01*
X147152000Y-90672990D01*
X147150000Y-90672990D01*
X147149010Y-90671454D01*
X147143991Y-90620489D01*
X147129180Y-90571665D01*
X147105131Y-90526671D01*
X147072765Y-90487235D01*
X147033329Y-90454869D01*
X146988335Y-90430820D01*
X146939511Y-90416009D01*
X146888546Y-90410990D01*
X146886920Y-90409825D01*
X146887116Y-90407835D01*
X146888742Y-90407000D01*
X146977552Y-90407000D01*
X146977748Y-90407010D01*
G37*
M02*
