G04 #@! TF.GenerationSoftware,KiCad,Pcbnew,(5.1.10)-1*
G04 #@! TF.CreationDate,2021-05-27T14:09:39+02:00*
G04 #@! TF.ProjectId,HV_UV_detect,48565f55-565f-4646-9574-6563742e6b69,0v2*
G04 #@! TF.SameCoordinates,Original*
G04 #@! TF.FileFunction,Legend,Top*
G04 #@! TF.FilePolarity,Positive*
%FSLAX46Y46*%
G04 Gerber Fmt 4.6, Leading zero omitted, Abs format (unit mm)*
G04 Created by KiCad (PCBNEW (5.1.10)-1) date 2021-05-27 14:09:39*
%MOMM*%
%LPD*%
G01*
G04 APERTURE LIST*
%ADD10C,0.150000*%
%ADD11C,0.120000*%
G04 APERTURE END LIST*
D10*
X139452380Y-98719047D02*
X140166666Y-98719047D01*
X140309523Y-98766666D01*
X140404761Y-98861904D01*
X140452380Y-99004761D01*
X140452380Y-99100000D01*
X140452380Y-97766666D02*
X140452380Y-98242857D01*
X139452380Y-98242857D01*
X140357142Y-96861904D02*
X140404761Y-96909523D01*
X140452380Y-97052380D01*
X140452380Y-97147619D01*
X140404761Y-97290476D01*
X140309523Y-97385714D01*
X140214285Y-97433333D01*
X140023809Y-97480952D01*
X139880952Y-97480952D01*
X139690476Y-97433333D01*
X139595238Y-97385714D01*
X139500000Y-97290476D01*
X139452380Y-97147619D01*
X139452380Y-97052380D01*
X139500000Y-96909523D01*
X139547619Y-96861904D01*
X139452380Y-96147619D02*
X140166666Y-96147619D01*
X140309523Y-96195238D01*
X140404761Y-96290476D01*
X140452380Y-96433333D01*
X140452380Y-96528571D01*
X140452380Y-95195238D02*
X140452380Y-95671428D01*
X139452380Y-95671428D01*
X140357142Y-94290476D02*
X140404761Y-94338095D01*
X140452380Y-94480952D01*
X140452380Y-94576190D01*
X140404761Y-94719047D01*
X140309523Y-94814285D01*
X140214285Y-94861904D01*
X140023809Y-94909523D01*
X139880952Y-94909523D01*
X139690476Y-94861904D01*
X139595238Y-94814285D01*
X139500000Y-94719047D01*
X139452380Y-94576190D01*
X139452380Y-94480952D01*
X139500000Y-94338095D01*
X139547619Y-94290476D01*
X139452380Y-93576190D02*
X140166666Y-93576190D01*
X140309523Y-93623809D01*
X140404761Y-93719047D01*
X140452380Y-93861904D01*
X140452380Y-93957142D01*
X140452380Y-92623809D02*
X140452380Y-93100000D01*
X139452380Y-93100000D01*
X140357142Y-91719047D02*
X140404761Y-91766666D01*
X140452380Y-91909523D01*
X140452380Y-92004761D01*
X140404761Y-92147619D01*
X140309523Y-92242857D01*
X140214285Y-92290476D01*
X140023809Y-92338095D01*
X139880952Y-92338095D01*
X139690476Y-92290476D01*
X139595238Y-92242857D01*
X139500000Y-92147619D01*
X139452380Y-92004761D01*
X139452380Y-91909523D01*
X139500000Y-91766666D01*
X139547619Y-91719047D01*
X139452380Y-91004761D02*
X140166666Y-91004761D01*
X140309523Y-91052380D01*
X140404761Y-91147619D01*
X140452380Y-91290476D01*
X140452380Y-91385714D01*
X140452380Y-90052380D02*
X140452380Y-90528571D01*
X139452380Y-90528571D01*
X140357142Y-89147619D02*
X140404761Y-89195238D01*
X140452380Y-89338095D01*
X140452380Y-89433333D01*
X140404761Y-89576190D01*
X140309523Y-89671428D01*
X140214285Y-89719047D01*
X140023809Y-89766666D01*
X139880952Y-89766666D01*
X139690476Y-89719047D01*
X139595238Y-89671428D01*
X139500000Y-89576190D01*
X139452380Y-89433333D01*
X139452380Y-89338095D01*
X139500000Y-89195238D01*
X139547619Y-89147619D01*
X154450000Y-98250000D02*
X154450000Y-100000000D01*
X159755000Y-98250000D02*
X159755000Y-92750000D01*
X154245000Y-98250000D02*
X154245000Y-92750000D01*
X159755000Y-98250000D02*
X159455000Y-98250000D01*
X159755000Y-92750000D02*
X159455000Y-92750000D01*
X154245000Y-92750000D02*
X154545000Y-92750000D01*
X154245000Y-98250000D02*
X154450000Y-98250000D01*
X150800000Y-95400000D02*
X150800000Y-92600000D01*
X149600000Y-95400000D02*
X150800000Y-95400000D01*
X149600000Y-92600000D02*
X149600000Y-95400000D01*
X150800000Y-92600000D02*
X149600000Y-92600000D01*
X150200000Y-91400000D02*
X150200000Y-96500000D01*
X148000000Y-91400000D02*
X148000000Y-96500000D01*
X152400000Y-91400000D02*
X152400000Y-96500000D01*
D11*
X166991000Y-82330000D02*
X166991000Y-83840000D01*
X163290000Y-82330000D02*
X163290000Y-83840000D01*
X160020000Y-83840000D02*
X170260000Y-83840000D01*
X170260000Y-82330000D02*
X170260000Y-86971000D01*
X160020000Y-82330000D02*
X160020000Y-86971000D01*
X160020000Y-86971000D02*
X170260000Y-86971000D01*
X160020000Y-82330000D02*
X170260000Y-82330000D01*
X164100000Y-96765000D02*
X160215000Y-96765000D01*
X160215000Y-96765000D02*
X160215000Y-99035000D01*
X160215000Y-99035000D02*
X164100000Y-99035000D01*
X147410000Y-87850000D02*
X135190000Y-87850000D01*
X135190000Y-87850000D02*
X135190000Y-100230000D01*
X135190000Y-100230000D02*
X147410000Y-100230000D01*
X147410000Y-100230000D02*
X147410000Y-87850000D01*
X136690000Y-87850000D02*
X138490000Y-87850000D01*
X138490000Y-87850000D02*
X138490000Y-100230000D01*
X138490000Y-100230000D02*
X136690000Y-100230000D01*
X136690000Y-100230000D02*
X136690000Y-87850000D01*
X135190000Y-90500000D02*
X135190000Y-92500000D01*
X135190000Y-92500000D02*
X136690000Y-92250000D01*
X136690000Y-92250000D02*
X136690000Y-90750000D01*
X136690000Y-90750000D02*
X135190000Y-90500000D01*
X135190000Y-95580000D02*
X135190000Y-97580000D01*
X135190000Y-97580000D02*
X136690000Y-97330000D01*
X136690000Y-97330000D02*
X136690000Y-95830000D01*
X136690000Y-95830000D02*
X135190000Y-95580000D01*
X148210000Y-91800000D02*
X147610000Y-91500000D01*
X147610000Y-91500000D02*
X148210000Y-91200000D01*
X148210000Y-91200000D02*
X148210000Y-91800000D01*
X165090000Y-96900000D02*
X165090000Y-96300000D01*
X165690000Y-96600000D02*
X165090000Y-96900000D01*
X165090000Y-96300000D02*
X165690000Y-96600000D01*
X176610000Y-92270000D02*
X178110000Y-92520000D01*
X176610000Y-90770000D02*
X176610000Y-92270000D01*
X178110000Y-90520000D02*
X176610000Y-90770000D01*
X178110000Y-92520000D02*
X178110000Y-90520000D01*
X176610000Y-97350000D02*
X178110000Y-97600000D01*
X176610000Y-95850000D02*
X176610000Y-97350000D01*
X178110000Y-95600000D02*
X176610000Y-95850000D01*
X178110000Y-97600000D02*
X178110000Y-95600000D01*
X176610000Y-87870000D02*
X176610000Y-100250000D01*
X174810000Y-87870000D02*
X176610000Y-87870000D01*
X174810000Y-100250000D02*
X174810000Y-87870000D01*
X176610000Y-100250000D02*
X174810000Y-100250000D01*
X165890000Y-87870000D02*
X165890000Y-100250000D01*
X178110000Y-87870000D02*
X165890000Y-87870000D01*
X178110000Y-100250000D02*
X178110000Y-87870000D01*
X165890000Y-100250000D02*
X178110000Y-100250000D01*
X154797936Y-87840000D02*
X156002064Y-87840000D01*
X154797936Y-89660000D02*
X156002064Y-89660000D01*
X157990000Y-89102064D02*
X157990000Y-87897936D01*
X159810000Y-89102064D02*
X159810000Y-87897936D01*
X163102064Y-91590000D02*
X161897936Y-91590000D01*
X163102064Y-93410000D02*
X161897936Y-93410000D01*
X161897936Y-96110000D02*
X163102064Y-96110000D01*
X161897936Y-94290000D02*
X163102064Y-94290000D01*
X163102064Y-90610000D02*
X161897936Y-90610000D01*
X163102064Y-88790000D02*
X161897936Y-88790000D01*
D10*
X152772380Y-96261904D02*
X153581904Y-96261904D01*
X153677142Y-96214285D01*
X153724761Y-96166666D01*
X153772380Y-96071428D01*
X153772380Y-95880952D01*
X153724761Y-95785714D01*
X153677142Y-95738095D01*
X153581904Y-95690476D01*
X152772380Y-95690476D01*
X153772380Y-94690476D02*
X153772380Y-95261904D01*
X153772380Y-94976190D02*
X152772380Y-94976190D01*
X152915238Y-95071428D01*
X153010476Y-95166666D01*
X153058095Y-95261904D01*
X153428571Y-93633333D02*
X153428571Y-93966666D01*
X153952380Y-93966666D02*
X152952380Y-93966666D01*
X152952380Y-93490476D01*
X153952380Y-92585714D02*
X153952380Y-93157142D01*
X153952380Y-92871428D02*
X152952380Y-92871428D01*
X153095238Y-92966666D01*
X153190476Y-93061904D01*
X153238095Y-93157142D01*
X161347619Y-85595238D02*
X161300000Y-85690476D01*
X161204761Y-85785714D01*
X161061904Y-85928571D01*
X161014285Y-86023809D01*
X161014285Y-86119047D01*
X161252380Y-86071428D02*
X161204761Y-86166666D01*
X161109523Y-86261904D01*
X160919047Y-86309523D01*
X160585714Y-86309523D01*
X160395238Y-86261904D01*
X160300000Y-86166666D01*
X160252380Y-86071428D01*
X160252380Y-85880952D01*
X160300000Y-85785714D01*
X160395238Y-85690476D01*
X160585714Y-85642857D01*
X160919047Y-85642857D01*
X161109523Y-85690476D01*
X161204761Y-85785714D01*
X161252380Y-85880952D01*
X161252380Y-86071428D01*
X161252380Y-84690476D02*
X161252380Y-85261904D01*
X161252380Y-84976190D02*
X160252380Y-84976190D01*
X160395238Y-85071428D01*
X160490476Y-85166666D01*
X160538095Y-85261904D01*
X152166666Y-86702380D02*
X152166666Y-87416666D01*
X152119047Y-87559523D01*
X152023809Y-87654761D01*
X151880952Y-87702380D01*
X151785714Y-87702380D01*
X153071428Y-87035714D02*
X153071428Y-87702380D01*
X152833333Y-86654761D02*
X152595238Y-87369047D01*
X153214285Y-87369047D01*
X146766666Y-86552380D02*
X146766666Y-87266666D01*
X146719047Y-87409523D01*
X146623809Y-87504761D01*
X146480952Y-87552380D01*
X146385714Y-87552380D01*
X147147619Y-86552380D02*
X147766666Y-86552380D01*
X147433333Y-86933333D01*
X147576190Y-86933333D01*
X147671428Y-86980952D01*
X147719047Y-87028571D01*
X147766666Y-87123809D01*
X147766666Y-87361904D01*
X147719047Y-87457142D01*
X147671428Y-87504761D01*
X147576190Y-87552380D01*
X147290476Y-87552380D01*
X147195238Y-87504761D01*
X147147619Y-87457142D01*
X161761904Y-100252380D02*
X161761904Y-99252380D01*
X162000000Y-99252380D01*
X162142857Y-99300000D01*
X162238095Y-99395238D01*
X162285714Y-99490476D01*
X162333333Y-99680952D01*
X162333333Y-99823809D01*
X162285714Y-100014285D01*
X162238095Y-100109523D01*
X162142857Y-100204761D01*
X162000000Y-100252380D01*
X161761904Y-100252380D01*
X163285714Y-100252380D02*
X162714285Y-100252380D01*
X163000000Y-100252380D02*
X163000000Y-99252380D01*
X162904761Y-99395238D01*
X162809523Y-99490476D01*
X162714285Y-99538095D01*
X140466666Y-86352380D02*
X140466666Y-87066666D01*
X140419047Y-87209523D01*
X140323809Y-87304761D01*
X140180952Y-87352380D01*
X140085714Y-87352380D01*
X141466666Y-87352380D02*
X140895238Y-87352380D01*
X141180952Y-87352380D02*
X141180952Y-86352380D01*
X141085714Y-86495238D01*
X140990476Y-86590476D01*
X140895238Y-86638095D01*
X172266666Y-86352380D02*
X172266666Y-87066666D01*
X172219047Y-87209523D01*
X172123809Y-87304761D01*
X171980952Y-87352380D01*
X171885714Y-87352380D01*
X172695238Y-86447619D02*
X172742857Y-86400000D01*
X172838095Y-86352380D01*
X173076190Y-86352380D01*
X173171428Y-86400000D01*
X173219047Y-86447619D01*
X173266666Y-86542857D01*
X173266666Y-86638095D01*
X173219047Y-86780952D01*
X172647619Y-87352380D01*
X173266666Y-87352380D01*
X153333333Y-90952380D02*
X153000000Y-90476190D01*
X152761904Y-90952380D02*
X152761904Y-89952380D01*
X153142857Y-89952380D01*
X153238095Y-90000000D01*
X153285714Y-90047619D01*
X153333333Y-90142857D01*
X153333333Y-90285714D01*
X153285714Y-90380952D01*
X153238095Y-90428571D01*
X153142857Y-90476190D01*
X152761904Y-90476190D01*
X154285714Y-90952380D02*
X153714285Y-90952380D01*
X154000000Y-90952380D02*
X154000000Y-89952380D01*
X153904761Y-90095238D01*
X153809523Y-90190476D01*
X153714285Y-90238095D01*
X157752380Y-87666666D02*
X157276190Y-88000000D01*
X157752380Y-88238095D02*
X156752380Y-88238095D01*
X156752380Y-87857142D01*
X156800000Y-87761904D01*
X156847619Y-87714285D01*
X156942857Y-87666666D01*
X157085714Y-87666666D01*
X157180952Y-87714285D01*
X157228571Y-87761904D01*
X157276190Y-87857142D01*
X157276190Y-88238095D01*
X156847619Y-87285714D02*
X156800000Y-87238095D01*
X156752380Y-87142857D01*
X156752380Y-86904761D01*
X156800000Y-86809523D01*
X156847619Y-86761904D01*
X156942857Y-86714285D01*
X157038095Y-86714285D01*
X157180952Y-86761904D01*
X157752380Y-87333333D01*
X157752380Y-86714285D01*
X165652380Y-92666666D02*
X165176190Y-93000000D01*
X165652380Y-93238095D02*
X164652380Y-93238095D01*
X164652380Y-92857142D01*
X164700000Y-92761904D01*
X164747619Y-92714285D01*
X164842857Y-92666666D01*
X164985714Y-92666666D01*
X165080952Y-92714285D01*
X165128571Y-92761904D01*
X165176190Y-92857142D01*
X165176190Y-93238095D01*
X164652380Y-92333333D02*
X164652380Y-91714285D01*
X165033333Y-92047619D01*
X165033333Y-91904761D01*
X165080952Y-91809523D01*
X165128571Y-91761904D01*
X165223809Y-91714285D01*
X165461904Y-91714285D01*
X165557142Y-91761904D01*
X165604761Y-91809523D01*
X165652380Y-91904761D01*
X165652380Y-92190476D01*
X165604761Y-92285714D01*
X165557142Y-92333333D01*
X165652380Y-95266666D02*
X165176190Y-95600000D01*
X165652380Y-95838095D02*
X164652380Y-95838095D01*
X164652380Y-95457142D01*
X164700000Y-95361904D01*
X164747619Y-95314285D01*
X164842857Y-95266666D01*
X164985714Y-95266666D01*
X165080952Y-95314285D01*
X165128571Y-95361904D01*
X165176190Y-95457142D01*
X165176190Y-95838095D01*
X164985714Y-94409523D02*
X165652380Y-94409523D01*
X164604761Y-94647619D02*
X165319047Y-94885714D01*
X165319047Y-94266666D01*
X165652380Y-89866666D02*
X165176190Y-90200000D01*
X165652380Y-90438095D02*
X164652380Y-90438095D01*
X164652380Y-90057142D01*
X164700000Y-89961904D01*
X164747619Y-89914285D01*
X164842857Y-89866666D01*
X164985714Y-89866666D01*
X165080952Y-89914285D01*
X165128571Y-89961904D01*
X165176190Y-90057142D01*
X165176190Y-90438095D01*
X164652380Y-88961904D02*
X164652380Y-89438095D01*
X165128571Y-89485714D01*
X165080952Y-89438095D01*
X165033333Y-89342857D01*
X165033333Y-89104761D01*
X165080952Y-89009523D01*
X165128571Y-88961904D01*
X165223809Y-88914285D01*
X165461904Y-88914285D01*
X165557142Y-88961904D01*
X165604761Y-89009523D01*
X165652380Y-89104761D01*
X165652380Y-89342857D01*
X165604761Y-89438095D01*
X165557142Y-89485714D01*
M02*
